<svg width="21" height="21" viewBox="0 0 21 21" fill="none" xmlns="http://www.w3.org/2000/svg">
<g clip-path="url(#clip0_203_974)">
<path d="M9.05871 0.61345L7.12618 0.109575C6.71342 -0.000397323 6.28303 -0.0279397 5.85963 0.0285228C5.43622 0.0849854 5.02809 0.224346 4.65858 0.438637C4.28906 0.652928 3.9654 0.937947 3.70611 1.2774C3.44681 1.61685 3.25696 2.00408 3.14741 2.41695L2.66504 4.23889C4.25575 2.25905 6.54305 0.962071 9.05871 0.61345Z" fill="white"/>
<path d="M0.581971 12.083L0.10882 13.868C-0.112353 14.7012 0.00648309 15.5881 0.439192 16.3337C0.871901 17.0793 1.58304 17.6224 2.4162 17.8437L4.25964 18.3353C2.29126 16.7877 0.978162 14.5554 0.581971 12.083Z" fill="white"/>
<path d="M18.5741 3.14805L16.5063 2.59808C17.5511 3.40179 18.4259 4.405 19.08 5.54951C19.734 6.69401 20.1541 7.95701 20.3161 9.2652L20.8845 7.11452C21.1028 6.2822 20.9821 5.39729 20.549 4.65376C20.116 3.91023 19.4057 3.36877 18.5741 3.14805Z" fill="white"/>
<path d="M11.8853 20.3566L13.867 20.8912C14.7001 21.1123 15.587 20.9935 16.3326 20.5608C17.0782 20.1281 17.6213 19.4169 17.8426 18.5839L18.4018 16.4823C16.8252 18.5822 14.4831 19.9746 11.8853 20.3566Z" fill="white"/>
<path d="M10.4968 1.3941C8.69611 1.3935 6.93574 1.92689 5.43826 2.92683C3.94079 3.92677 2.77348 5.34834 2.08399 7.01174C1.39449 8.67515 1.21377 10.5057 1.56469 12.2718C1.91561 14.0379 2.78239 15.6603 4.05542 16.9337C5.32845 18.2072 6.95054 19.0746 8.71655 19.4261C10.4825 19.7775 12.3131 19.5975 13.9767 18.9085C15.6404 18.2196 17.0623 17.0528 18.0628 15.5557C19.0633 14.0585 19.5972 12.2983 19.5972 10.4976C19.5972 8.08377 18.6386 5.76872 16.932 4.06156C15.2254 2.3544 12.9106 1.39492 10.4968 1.3941ZM5.34126 5.93513C5.4386 5.43041 5.6834 4.96589 6.04471 4.60029C6.40602 4.23468 6.86762 3.98441 7.37115 3.88112C7.87468 3.77782 8.39753 3.82614 8.87364 4.01997C9.34964 4.21379 9.75757 4.54442 10.0458 4.97005C10.3339 5.39567 10.4895 5.89719 10.4927 6.4112C10.4959 6.9252 10.3466 7.42861 10.0637 7.85779C9.78084 8.28697 9.37712 8.62264 8.90348 8.82236C8.42982 9.02213 7.90762 9.0769 7.40285 8.97986C7.0675 8.91546 6.74815 8.78553 6.46304 8.5976C6.17793 8.40968 5.93264 8.16742 5.74119 7.88466C5.54973 7.60191 5.41587 7.28419 5.34725 6.94968C5.27863 6.61518 5.2766 6.27042 5.34126 5.93513ZM9.12337 13.8005C9.02537 14.305 8.77993 14.7691 8.4182 15.1343C8.05644 15.4993 7.59456 15.749 7.09094 15.8516C6.58733 15.9542 6.0646 15.9053 5.58881 15.7109C5.11302 15.5166 4.70553 15.1855 4.41786 14.7595C4.1302 14.3336 3.97525 13.832 3.97263 13.318C3.97 12.8041 4.1198 12.3008 4.4031 11.872C4.6864 11.4432 5.09048 11.108 5.56425 10.9087C6.03803 10.7095 6.56024 10.6551 7.06488 10.7527C7.40025 10.8175 7.71956 10.9477 8.00457 11.136C8.28956 11.3243 8.53466 11.5669 8.72584 11.85C8.91704 12.133 9.05057 12.4509 9.11873 12.7857C9.18698 13.1204 9.18856 13.4652 9.12337 13.8005ZM10.2264 11.6959C10.0024 11.6526 9.79616 11.5439 9.63384 11.3835C9.47153 11.2231 9.36032 11.0183 9.31429 10.7948C9.26827 10.5712 9.28944 10.3392 9.37519 10.1277C9.46094 9.9162 9.60733 9.7349 9.79607 9.60654C9.98472 9.47818 10.2071 9.40861 10.4353 9.40651C10.6635 9.40441 10.8872 9.46995 11.0781 9.5949C11.2691 9.71976 11.4188 9.89844 11.5084 10.1084C11.5979 10.3182 11.6232 10.5499 11.5813 10.7741C11.5533 10.9239 11.4959 11.0666 11.4126 11.1941C11.3292 11.3215 11.2215 11.4312 11.0955 11.5168C10.9696 11.6025 10.828 11.6624 10.6789 11.6932C10.5297 11.7239 10.3759 11.7248 10.2264 11.6959ZM15.6492 15.054C15.5518 15.5587 15.3071 16.0233 14.9457 16.3888C14.5844 16.7545 14.1229 17.0048 13.6193 17.108C13.1157 17.2113 12.5929 17.163 12.1168 16.9692C11.6407 16.7753 11.2328 16.4448 10.9447 16.0192C10.6565 15.5935 10.501 15.092 10.4977 14.5779C10.4946 14.064 10.6439 13.5606 10.9267 13.1314C11.2096 12.7022 11.6134 12.3666 12.087 12.1668C12.5606 11.967 13.0828 11.9123 13.5876 12.0093C13.9229 12.0737 14.2423 12.2036 14.5274 12.3916C14.8125 12.5794 15.0578 12.8217 15.2492 13.1045C15.4407 13.3872 15.5746 13.705 15.6432 14.0395C15.7119 14.374 15.7139 14.7187 15.6492 15.054ZM13.9286 10.2365C13.4239 10.1392 12.9594 9.89433 12.5938 9.53304C12.2282 9.17175 11.9779 8.71014 11.8746 8.2066C11.7713 7.70307 11.8197 7.18023 12.0135 6.70415C12.2073 6.22808 12.538 5.82016 12.9636 5.53197C13.3892 5.24378 13.8907 5.08826 14.4047 5.08506C14.9188 5.08187 15.4221 5.23115 15.8513 5.51402C16.2805 5.7969 16.6162 6.20067 16.8158 6.6743C17.0156 7.14792 17.0704 7.67014 16.9734 8.17491C16.9093 8.51052 16.7796 8.83024 16.5918 9.11566C16.4041 9.40109 16.1619 9.64679 15.8791 9.8385C15.5963 10.0303 15.2785 10.1644 14.9438 10.2332C14.6091 10.3021 14.2642 10.3042 13.9286 10.2396V10.2365Z" fill="white"/>
</g>
<defs>
<clipPath id="clip0_203_974">
<rect width="21" height="21" fill="white"/>
</clipPath>
</defs>
</svg>