<svg xmlns="http://www.w3.org/2000/svg" width="72" height="72" viewBox="0 0 72 72" fill="none">
<circle opacity="0.5" cx="36" cy="36" r="36" fill="#C2E1A0"/>
<path d="M36 61C49.8071 61 61 49.8071 61 36C61 22.1929 49.8071 11 36 11C22.1929 11 11 22.1929 11 36C11 49.8071 22.1929 61 36 61Z" fill="white"/>
<g clip-path="url(#clip0)">
<path d="M24.9905 42.1791C25.0251 43.8867 25.0684 45.5943 25.1203 47.3018C25.1423 48.008 25.7395 48.6265 26.4518 48.6747C27.9579 48.7756 29.464 48.8528 30.9702 48.9066C30.937 46.7306 30.9103 44.5546 30.8899 42.3785C28.9235 42.336 26.957 42.2695 24.9905 42.1791Z" fill="url(#paint0_linear)"/>
<path d="M29.5791 42.3466C29.5995 44.0821 29.6249 45.8176 29.6555 47.5531C29.6686 48.2715 30.258 48.881 30.9703 48.9066C35.919 49.0832 40.8676 49.006 45.8162 48.6747C46.5287 48.6263 47.1259 48.0083 47.1477 47.3018C47.1997 45.5942 47.243 43.8866 47.2776 42.179C41.3781 42.4504 35.4786 42.5062 29.5791 42.3466Z" fill="url(#paint1_linear)"/>
<path d="M26.2801 22.9191C25.5549 22.9456 24.9562 23.5431 24.9451 24.2495C24.8543 30.2261 24.8694 36.2026 24.9906 42.1792C25.0053 42.8858 25.604 43.4899 26.3259 43.5237C27.8517 43.5935 29.3774 43.647 30.9031 43.6842C30.8298 36.721 30.8216 29.7577 30.8787 22.7944C29.3457 22.8232 27.8129 22.8648 26.2801 22.9191Z" fill="url(#paint2_linear)"/>
<path d="M34.8203 22.7476C33.5065 22.7539 32.1926 22.7693 30.8787 22.7942C30.1534 22.8082 29.559 23.4054 29.5524 24.1237C29.4951 30.6318 29.5095 37.1399 29.5954 43.6482C35.0443 43.8144 40.4933 43.7728 45.9423 43.5235C46.6642 43.4897 47.263 42.8857 47.2777 42.179C47.3253 39.831 47.3565 37.4831 47.3714 35.1352C43.2107 31.1394 38.9724 26.8835 34.8203 22.7476Z" fill="url(#paint3_linear)"/>
<path d="M45.9879 22.9191C42.2654 22.7872 38.5428 22.7301 34.8201 22.7477C34.8024 29.6241 40.4401 35.2562 47.3712 35.1354C47.3942 31.5067 47.3781 27.8781 47.323 24.2495C47.3119 23.5429 46.7132 22.9455 45.9879 22.9191Z" fill="url(#paint4_linear)"/>
<path d="M42.7323 26.2931C42.7404 27.4901 41.7571 28.4521 40.5403 28.4461C39.3231 28.4395 38.3357 27.4581 38.3335 26.2504C38.3316 25.0431 39.311 24.0699 40.5219 24.0868C41.7328 24.1044 42.7239 25.0965 42.7323 26.2931Z" fill="url(#paint5_linear)"/>
<path d="M33.9347 26.2505C33.9325 27.4582 32.945 28.4395 31.7279 28.4461C30.5109 28.4521 29.5278 27.49 29.5359 26.2932C29.5443 25.0965 30.5353 24.1041 31.7463 24.0869C32.9574 24.0698 33.9366 25.043 33.9347 26.2505Z" fill="url(#paint6_linear)"/>
<path d="M39.6482 24.9492C39.65 25.3858 39.6516 25.8222 39.6531 26.2588C39.6547 26.7411 40.0499 27.1345 40.5363 27.1383C41.0226 27.1422 41.415 26.7563 41.4127 26.2758C41.4104 25.8407 41.408 25.4054 41.4053 24.9702C40.8195 24.9619 40.2339 24.9549 39.6482 24.9492Z" fill="url(#paint7_linear)"/>
<path d="M30.8629 24.9702C30.8601 25.4054 30.8577 25.8406 30.8555 26.2758C30.8531 26.7565 31.2456 27.1422 31.7319 27.1383C32.2181 27.1343 32.6136 26.7409 32.615 26.2588C32.6165 25.8222 32.6181 25.3858 32.6199 24.9492C32.0343 24.9549 31.4486 24.9619 30.8629 24.9702Z" fill="url(#paint8_linear)"/>
<path d="M36.134 36.8308C38.9772 36.8286 41.3277 34.3927 41.3651 31.5161C41.3818 29.9204 41.3953 28.3246 41.4053 26.7289C41.4084 26.2482 41.0167 25.8638 40.5309 25.8686C40.0454 25.8736 39.6499 26.2677 39.6482 26.7499C39.6416 28.3504 39.6326 29.951 39.6214 31.5516C39.6049 33.4748 38.038 35.0801 36.134 35.0805C34.23 35.08 32.6632 33.4749 32.6467 31.5516C32.6355 29.951 32.6265 28.3504 32.6199 26.7499C32.618 26.2675 32.2229 25.8735 31.7372 25.8686C31.2514 25.8637 30.8598 26.2483 30.8628 26.7289C30.8728 28.3246 30.8862 29.9204 30.903 31.5161C30.9404 34.3927 33.2907 36.8285 36.134 36.8308Z" fill="white"/>
</g>
<defs>
<linearGradient id="paint0_linear" x1="6.35279" y1="66.9985" x2="64.1999" y2="8.68823" gradientUnits="userSpaceOnUse">
<stop stop-color="#E0E9DD"/>
<stop offset="0.5" stop-color="#98E231"/>
<stop offset="1" stop-color="#E6FE7F"/>
</linearGradient>
<linearGradient id="paint1_linear" x1="26.2827" y1="57.0741" x2="69.1584" y2="13.8549" gradientUnits="userSpaceOnUse">
<stop stop-color="#95E12E"/>
<stop offset="1" stop-color="#E6FE7F"/>
</linearGradient>
<linearGradient id="paint2_linear" x1="20.0377" y1="41.5286" x2="41.9786" y2="19.412" gradientUnits="userSpaceOnUse">
<stop stop-color="#95E12E"/>
<stop offset="1" stop-color="#E6FE7F"/>
</linearGradient>
<linearGradient id="paint3_linear" x1="13.8727" y1="57.4921" x2="54.2455" y2="16.7961" gradientUnits="userSpaceOnUse">
<stop stop-color="#95E12E"/>
<stop offset="1" stop-color="#E6FE7F"/>
</linearGradient>
<linearGradient id="paint4_linear" x1="8.92737" y1="60.8542" x2="46.2338" y2="23.249" gradientUnits="userSpaceOnUse">
<stop stop-color="#95E12E"/>
<stop offset="1" stop-color="#E6FE7F"/>
</linearGradient>
<linearGradient id="paint5_linear" x1="38.4537" y1="28.3292" x2="46.7658" y2="19.9505" gradientUnits="userSpaceOnUse">
<stop stop-color="#95E12E"/>
<stop offset="1" stop-color="#E6FE7F"/>
</linearGradient>
<linearGradient id="paint6_linear" x1="30.1756" y1="27.8237" x2="40.2048" y2="17.7142" gradientUnits="userSpaceOnUse">
<stop stop-color="#95E12E"/>
<stop offset="1" stop-color="#E6FE7F"/>
</linearGradient>
<linearGradient id="paint7_linear" x1="25.0588" y1="41.1412" x2="41.8259" y2="24.2397" gradientUnits="userSpaceOnUse">
<stop stop-color="#95E12E"/>
<stop offset="1" stop-color="#E6FE7F"/>
</linearGradient>
<linearGradient id="paint8_linear" x1="16.1044" y1="41.3055" x2="33.1132" y2="24.1605" gradientUnits="userSpaceOnUse">
<stop stop-color="#95E12E"/>
<stop offset="1" stop-color="#E6FE7F"/>
</linearGradient>
<clipPath id="clip0">
<rect width="22" height="26" fill="white" transform="translate(25 23)"/>
</clipPath>
</defs>
</svg>