<svg xmlns="http://www.w3.org/2000/svg" width="39.824" height="39.823" viewBox="0 0 39.824 39.823">
  <g id="Iconly_Bulk_Discount" data-name="Iconly/Bulk/Discount" transform="translate(-2 -2)">
    <path id="Fill-1" d="M21.911,41.823a5.983,5.983,0,0,1-4.23-1.742l-1.454-1.454a3,3,0,0,0-2.119-.874H12.064a6,6,0,0,1-6-6V29.71a3,3,0,0,0-.876-2.121l-1.43-1.428a6,6,0,0,1-.022-8.477l1.454-1.456a3,3,0,0,0,.874-2.119V12.067a6,6,0,0,1,6-6h2.047a2.977,2.977,0,0,0,2.119-.878l1.432-1.428a6,6,0,0,1,8.477-.022l1.454,1.454a2.981,2.981,0,0,0,2.117.874h2.047a6,6,0,0,1,6,6v2.045a3,3,0,0,0,.876,2.121l1.43,1.43a5.993,5.993,0,0,1,.04,8.457c-.02.02-.038.042-.058.06l-1.414,1.414a3,3,0,0,0-.874,2.119v2.045a6,6,0,0,1-6,6H29.709a3,3,0,0,0-2.119.876l-1.432,1.43a5.971,5.971,0,0,1-4.247,1.764" transform="translate(0 0)" fill="#b3bbc7" opacity="0.4"/>
    <path id="Combined-Shape" d="M19.285,19.315a1.762,1.762,0,0,1,1.92-.386,1.588,1.588,0,0,1,.575.372,1.791,1.791,0,0,1,0,2.463,1.809,1.809,0,0,1-1.233.512,1.784,1.784,0,0,1-1.245-.5,1.816,1.816,0,0,1-.376-.562,1.953,1.953,0,0,1,0-1.356A2.341,2.341,0,0,1,19.285,19.315Zm.023-10.251a1.742,1.742,0,0,1,2.463,2.465h0L11.536,21.764a1.743,1.743,0,0,1-2.463,0,1.746,1.746,0,0,1,0-2.465h0ZM9.657,8.687a1.705,1.705,0,0,1,1.874.384,1.829,1.829,0,0,1,.384.548,1.7,1.7,0,0,1-.394,1.916,1.7,1.7,0,0,1-1.227.506,1.8,1.8,0,0,1-1.225-.508A1.753,1.753,0,0,1,8.552,10.3a1.822,1.822,0,0,1,.506-1.225A1.578,1.578,0,0,1,9.657,8.687Z" transform="translate(6.495 6.497)" fill="#b3bbc7"/>
  </g>
</svg>