<svg width="116" height="221" viewBox="0 0 116 221" fill="none" xmlns="http://www.w3.org/2000/svg">
<g opacity="0.2">
<path d="M61.7118 184.83C63.3903 176.301 71.665 170.748 80.1938 172.427" stroke="url(#paint0_linear_2954_100903)" stroke-width="3"/>
<path d="M67.7903 153.945C66.1117 162.474 71.665 170.748 80.1938 172.427" stroke="url(#paint1_linear_2954_100903)" stroke-width="3"/>
<path d="M61.7117 184.83C63.3902 176.302 57.8369 168.027 49.3081 166.348" stroke="url(#paint2_linear_2954_100903)" stroke-width="3"/>
<path d="M67.7902 153.945C66.1117 162.474 57.8369 168.027 49.3081 166.348" stroke="url(#paint3_linear_2954_100903)" stroke-width="3"/>
<path d="M48.8416 200.596C44.942 196.077 45.4444 189.252 49.9637 185.352" stroke="url(#paint4_linear_2954_100903)" stroke-width="3"/>
<path d="M34.72 184.23C38.6196 188.75 45.4444 189.252 49.9637 185.352" stroke="url(#paint5_linear_2954_100903)" stroke-width="3"/>
<path d="M48.8418 200.596C44.9422 196.077 38.1173 195.574 33.598 199.474" stroke="url(#paint6_linear_2954_100903)" stroke-width="3"/>
<path d="M34.7201 184.23C38.6197 188.749 38.1173 195.574 33.598 199.474" stroke="url(#paint7_linear_2954_100903)" stroke-width="3"/>
<path d="M34.7846 175.363C30.885 170.844 31.3874 164.019 35.9067 160.119" stroke="url(#paint8_linear_2954_100903)" stroke-width="3"/>
<path d="M20.663 158.997C24.5626 163.517 31.3874 164.019 35.9067 160.119" stroke="url(#paint9_linear_2954_100903)" stroke-width="3"/>
<path d="M34.7848 175.363C30.8852 170.844 24.0603 170.341 19.541 174.241" stroke="url(#paint10_linear_2954_100903)" stroke-width="3"/>
<path d="M20.6631 158.997C24.5627 163.516 24.0603 170.341 19.541 174.241" stroke="url(#paint11_linear_2954_100903)" stroke-width="3"/>
</g>
<g opacity="0.2">
<path d="M64.6954 138.106C66.3739 129.577 74.6487 124.024 83.1775 125.702" stroke="url(#paint12_linear_2954_100903)" stroke-width="3"/>
<path d="M70.7739 107.22C69.0954 115.749 74.6487 124.024 83.1775 125.702" stroke="url(#paint13_linear_2954_100903)" stroke-width="3"/>
<path d="M64.6955 138.106C66.374 129.577 60.8207 121.302 52.2919 119.624" stroke="url(#paint14_linear_2954_100903)" stroke-width="3"/>
<path d="M70.774 107.22C69.0954 115.749 60.8207 121.302 52.2919 119.624" stroke="url(#paint15_linear_2954_100903)" stroke-width="3"/>
<path d="M51.8253 153.872C47.9257 149.353 48.4281 142.528 52.9474 138.628" stroke="url(#paint16_linear_2954_100903)" stroke-width="3"/>
<path d="M37.7036 137.506C41.6032 142.025 48.4281 142.528 52.9474 138.628" stroke="url(#paint17_linear_2954_100903)" stroke-width="3"/>
<path d="M51.8254 153.872C47.9259 149.352 41.101 148.85 36.5817 152.75" stroke="url(#paint18_linear_2954_100903)" stroke-width="3"/>
<path d="M37.7038 137.506C41.6034 142.025 41.101 148.85 36.5817 152.75" stroke="url(#paint19_linear_2954_100903)" stroke-width="3"/>
<path d="M37.7678 128.639C33.8682 124.119 34.3706 117.295 38.8899 113.395" stroke="url(#paint20_linear_2954_100903)" stroke-width="3"/>
<path d="M23.6461 112.273C27.5457 116.792 34.3706 117.295 38.8899 113.395" stroke="url(#paint21_linear_2954_100903)" stroke-width="3"/>
<path d="M37.768 128.639C33.8684 124.119 27.0435 123.617 22.5242 127.516" stroke="url(#paint22_linear_2954_100903)" stroke-width="3"/>
<path d="M23.6463 112.273C27.5459 116.792 27.0435 123.617 22.5242 127.516" stroke="url(#paint23_linear_2954_100903)" stroke-width="3"/>
</g>
<path d="M76.944 45.1196C66.9478 42.1639 61.2404 31.6644 64.196 21.6682" stroke="#F25050" stroke-width="3"/>
<path d="M40.7447 34.4162C50.7408 37.3718 61.2404 31.6644 64.196 21.6682" stroke="#F25050" stroke-width="3"/>
<path d="M76.9442 45.1196C66.948 42.1639 56.4485 47.8714 53.4928 57.8676" stroke="#F25050" stroke-width="3"/>
<path d="M40.7449 34.4162C50.741 37.3718 56.4485 47.8714 53.4928 57.8676" stroke="#F25050" stroke-width="3"/>
<path d="M94.3332 62.2453C88.5021 66.3972 80.4092 65.0359 76.2573 59.2048" stroke="#F25050" stroke-width="3"/>
<path d="M73.2169 77.2807C79.048 73.1288 80.4092 65.0359 76.2573 59.2048" stroke="#F25050" stroke-width="3"/>
<path d="M94.3329 62.2453C88.5018 66.3972 87.1406 74.4901 91.2925 80.3212" stroke="#F25050" stroke-width="3"/>
<path d="M73.2166 77.2807C79.0477 73.1288 87.1406 74.4901 91.2925 80.3212" stroke="#F25050" stroke-width="3"/>
<path d="M62.6364 76.2143C56.8053 80.3662 48.7125 79.0049 44.5605 73.1738" stroke="#F25050" stroke-width="3"/>
<path d="M41.5201 91.2497C47.3512 87.0978 48.7125 79.0049 44.5605 73.1738" stroke="#F25050" stroke-width="3"/>
<path d="M62.6363 76.2143C56.8052 80.3662 55.4439 88.459 59.5958 94.2902" stroke="#F25050" stroke-width="3"/>
<path d="M41.5199 91.2497C47.3511 87.0978 55.4439 88.459 59.5958 94.2902" stroke="#F25050" stroke-width="3"/>
<defs>
<linearGradient id="paint0_linear_2954_100903" x1="96.1813" y1="202.041" x2="91.7905" y2="169.987" gradientUnits="userSpaceOnUse">
<stop stop-color="#EF7039"/>
<stop offset="1" stop-color="#CB192E"/>
</linearGradient>
<linearGradient id="paint1_linear_2954_100903" x1="106.211" y1="151.079" x2="90.0013" y2="179.079" gradientUnits="userSpaceOnUse">
<stop stop-color="#EF7039"/>
<stop offset="1" stop-color="#CB192E"/>
</linearGradient>
<linearGradient id="paint2_linear_2954_100903" x1="23.2911" y1="187.696" x2="39.5007" y2="159.696" gradientUnits="userSpaceOnUse">
<stop stop-color="#EF7039"/>
<stop offset="1" stop-color="#CB192E"/>
</linearGradient>
<linearGradient id="paint3_linear_2954_100903" x1="33.3206" y1="136.734" x2="37.7115" y2="168.788" gradientUnits="userSpaceOnUse">
<stop stop-color="#EF7039"/>
<stop offset="1" stop-color="#CB192E"/>
</linearGradient>
<linearGradient id="paint4_linear_2954_100903" x1="72.7429" y1="189.252" x2="53.5562" y2="178.051" gradientUnits="userSpaceOnUse">
<stop stop-color="#EF7039"/>
<stop offset="1" stop-color="#CB192E"/>
</linearGradient>
<linearGradient id="paint5_linear_2954_100903" x1="49.4422" y1="162.248" x2="57.713" y2="182.868" gradientUnits="userSpaceOnUse">
<stop stop-color="#EF7039"/>
<stop offset="1" stop-color="#CB192E"/>
</linearGradient>
<linearGradient id="paint6_linear_2954_100903" x1="34.1196" y1="222.578" x2="25.8488" y2="201.958" gradientUnits="userSpaceOnUse">
<stop stop-color="#EF7039"/>
<stop offset="1" stop-color="#CB192E"/>
</linearGradient>
<linearGradient id="paint7_linear_2954_100903" x1="10.8188" y1="195.575" x2="30.0055" y2="206.776" gradientUnits="userSpaceOnUse">
<stop stop-color="#EF7039"/>
<stop offset="1" stop-color="#CB192E"/>
</linearGradient>
<linearGradient id="paint8_linear_2954_100903" x1="58.6859" y1="164.018" x2="39.4992" y2="152.817" gradientUnits="userSpaceOnUse">
<stop stop-color="#EF7039"/>
<stop offset="1" stop-color="#CB192E"/>
</linearGradient>
<linearGradient id="paint9_linear_2954_100903" x1="35.3852" y1="137.015" x2="43.656" y2="157.635" gradientUnits="userSpaceOnUse">
<stop stop-color="#EF7039"/>
<stop offset="1" stop-color="#CB192E"/>
</linearGradient>
<linearGradient id="paint10_linear_2954_100903" x1="20.0626" y1="197.345" x2="11.7918" y2="176.725" gradientUnits="userSpaceOnUse">
<stop stop-color="#EF7039"/>
<stop offset="1" stop-color="#CB192E"/>
</linearGradient>
<linearGradient id="paint11_linear_2954_100903" x1="-3.23817" y1="170.342" x2="15.9485" y2="181.543" gradientUnits="userSpaceOnUse">
<stop stop-color="#EF7039"/>
<stop offset="1" stop-color="#CB192E"/>
</linearGradient>
<linearGradient id="paint12_linear_2954_100903" x1="99.165" y1="155.316" x2="94.7741" y2="123.263" gradientUnits="userSpaceOnUse">
<stop stop-color="#EF7039"/>
<stop offset="1" stop-color="#CB192E"/>
</linearGradient>
<linearGradient id="paint13_linear_2954_100903" x1="109.195" y1="104.355" x2="92.9849" y2="132.354" gradientUnits="userSpaceOnUse">
<stop stop-color="#EF7039"/>
<stop offset="1" stop-color="#CB192E"/>
</linearGradient>
<linearGradient id="paint14_linear_2954_100903" x1="26.2749" y1="140.971" x2="42.4844" y2="112.972" gradientUnits="userSpaceOnUse">
<stop stop-color="#EF7039"/>
<stop offset="1" stop-color="#CB192E"/>
</linearGradient>
<linearGradient id="paint15_linear_2954_100903" x1="36.3044" y1="90.0098" x2="40.6952" y2="122.063" gradientUnits="userSpaceOnUse">
<stop stop-color="#EF7039"/>
<stop offset="1" stop-color="#CB192E"/>
</linearGradient>
<linearGradient id="paint16_linear_2954_100903" x1="75.7266" y1="142.527" x2="56.5399" y2="131.326" gradientUnits="userSpaceOnUse">
<stop stop-color="#EF7039"/>
<stop offset="1" stop-color="#CB192E"/>
</linearGradient>
<linearGradient id="paint17_linear_2954_100903" x1="52.4258" y1="115.523" x2="60.6966" y2="136.143" gradientUnits="userSpaceOnUse">
<stop stop-color="#EF7039"/>
<stop offset="1" stop-color="#CB192E"/>
</linearGradient>
<linearGradient id="paint18_linear_2954_100903" x1="37.1032" y1="175.854" x2="28.8324" y2="155.234" gradientUnits="userSpaceOnUse">
<stop stop-color="#EF7039"/>
<stop offset="1" stop-color="#CB192E"/>
</linearGradient>
<linearGradient id="paint19_linear_2954_100903" x1="13.8025" y1="148.85" x2="32.9892" y2="160.051" gradientUnits="userSpaceOnUse">
<stop stop-color="#EF7039"/>
<stop offset="1" stop-color="#CB192E"/>
</linearGradient>
<linearGradient id="paint20_linear_2954_100903" x1="61.6691" y1="117.294" x2="42.4824" y2="106.093" gradientUnits="userSpaceOnUse">
<stop stop-color="#EF7039"/>
<stop offset="1" stop-color="#CB192E"/>
</linearGradient>
<linearGradient id="paint21_linear_2954_100903" x1="38.3683" y1="90.2904" x2="46.6391" y2="110.91" gradientUnits="userSpaceOnUse">
<stop stop-color="#EF7039"/>
<stop offset="1" stop-color="#CB192E"/>
</linearGradient>
<linearGradient id="paint22_linear_2954_100903" x1="23.0458" y1="150.621" x2="14.7749" y2="130.001" gradientUnits="userSpaceOnUse">
<stop stop-color="#EF7039"/>
<stop offset="1" stop-color="#CB192E"/>
</linearGradient>
<linearGradient id="paint23_linear_2954_100903" x1="-0.255019" y1="123.617" x2="18.9317" y2="134.818" gradientUnits="userSpaceOnUse">
<stop stop-color="#EF7039"/>
<stop offset="1" stop-color="#CB192E"/>
</linearGradient>
</defs>
</svg>