<svg xmlns="http://www.w3.org/2000/svg" width="127" height="40" viewBox="0 0 127 40" fill="none">
    <path d="M35.5762 39.0554C34.3267 39.0554 32.8626 38.6531 31.9004 37.9355L33.0772 36.2557C33.7668 36.8582 34.642 37.1599 35.4466 37.1599C36.8247 37.1599 37.4707 36.3563 37.4707 35.1638V34.7325H37.4271C36.9823 35.3069 36.2067 35.6802 35.2589 35.6802C33.0907 35.6802 31.8423 33.9869 31.8423 32.0044C31.8423 30.0228 33.0918 28.257 35.2454 28.257C36.1351 28.257 37.0258 28.6157 37.5277 29.3768H37.5567V28.4581H39.7819V34.9326C39.783 37.7344 38.1167 39.0554 35.5762 39.0554ZM35.8054 30.1825C34.7425 30.1825 34.1256 31.0006 34.1256 31.9919C34.1256 32.9397 34.7425 33.8148 35.8054 33.8148C36.8817 33.8148 37.5422 32.9677 37.5422 31.9919C37.5432 31.0152 36.8682 30.1825 35.8054 30.1825Z" fill="#0E1935"></path>
    <path d="M41.4141 29.4369C42.2467 28.6468 43.4381 28.231 44.6016 28.231C46.9989 28.231 47.8896 29.4079 47.8896 32.0064V35.6096H45.7359V34.8485H45.6924C45.3336 35.4375 44.5155 35.7818 43.6683 35.7818C42.5339 35.7818 41.0698 35.2218 41.0698 33.542C41.0698 31.4744 43.5823 31.1302 45.6644 31.1302V31.0151C45.6644 30.312 45.1045 29.9813 44.3724 29.9813C43.6974 29.9813 43.0369 30.312 42.6065 30.7144L41.4141 29.4369ZM45.7349 32.4937H45.4332C44.3994 32.4937 43.237 32.6233 43.237 33.4705C43.237 34.0159 43.7824 34.2025 44.2563 34.2025C45.204 34.2025 45.7349 33.6291 45.7349 32.7374V32.4937Z" fill="#0E1935"></path>
    <path d="M49.1909 39.0554C48.8747 39.0554 48.4298 39.0128 48.1716 38.9413L48.3292 36.9743C48.5014 37.0313 48.7025 37.0458 48.8321 37.0458C49.5217 37.0458 49.6938 36.5284 49.6938 35.7974V28.4602H52.0487V35.7974C52.0487 37.5622 51.5032 39.0554 49.1909 39.0554ZM50.8707 27.4689C50.1096 27.4689 49.5217 26.8809 49.5217 26.1769C49.5217 25.4884 50.1107 24.8849 50.8707 24.8849C51.6173 24.8849 52.2197 25.4583 52.2197 26.1769C52.2208 26.9089 51.6173 27.4689 50.8707 27.4689Z" fill="#0E1935"></path>
    <path d="M62.9134 35.6097V31.7047C62.9134 30.8866 62.7268 30.197 61.8941 30.197C61.0905 30.197 60.7027 30.9436 60.7027 31.7472V35.6087H58.3479V31.5315C58.3479 30.7134 58.0316 30.197 57.3286 30.197C56.582 30.197 56.1517 30.8721 56.1517 31.7327V35.6087H53.7823V28.4592H56.0656V29.4504H56.0936C56.4244 28.848 57.1565 28.259 58.2328 28.259C59.2666 28.259 59.9841 28.7049 60.3864 29.4795C60.8603 28.7329 61.6069 28.259 62.6697 28.259C64.6077 28.259 65.2682 29.8383 65.2682 31.1883V35.6097H62.9134Z" fill="#0E1935"></path>
    <path d="M66.8723 29.4369C67.705 28.6468 68.8964 28.231 70.0598 28.231C72.4571 28.231 73.3479 29.4079 73.3479 32.0064V35.6096H71.1942V34.8485H71.1506C70.7919 35.4375 69.9737 35.7818 69.1266 35.7818C67.9922 35.7818 66.5281 35.2218 66.5281 33.542C66.5281 31.4744 69.0405 31.1302 71.1226 31.1302V31.0151C71.1226 30.312 70.5627 29.9813 69.8307 29.9813C69.1556 29.9813 68.4951 30.312 68.0648 30.7144L66.8723 29.4369ZM71.1942 32.4937H70.8924C69.8586 32.4937 68.6963 32.6233 68.6963 33.4705C68.6963 34.0159 69.2417 34.2025 69.7155 34.2025C70.6633 34.2025 71.1942 33.6291 71.1942 32.7374V32.4937Z" fill="#0E1935"></path>
    <path d="M79.5414 30.3837C79.3257 30.3266 79.1256 30.3121 78.9389 30.3121C77.6749 30.3121 77.2591 31.3459 77.2591 31.9339V35.6097H74.9043V28.4602H77.1731V29.494H77.2021C77.5609 28.7765 78.2639 28.259 79.1401 28.259C79.3267 28.259 79.5279 28.2735 79.643 28.3171L79.5414 30.3837Z" fill="#0E1935"></path>
    <path d="M88.3147 35.6097H85.3999L83.0596 32.1786H83.0171V35.6097H80.6477V25.5641H83.0171V31.3604H83.0596L85.3429 28.4602H88.1995L85.4434 31.6902L88.3147 35.6097Z" fill="#0E1935"></path>
    <path d="M95.681 32.6804H90.4985C90.5701 33.4705 91.3602 34.0304 92.2073 34.0304C92.9539 34.0304 93.4703 33.7142 93.7866 33.2838L95.4228 34.3176C94.7478 35.2934 93.6279 35.8398 92.1783 35.8398C90.0246 35.8398 88.2443 34.4763 88.2443 32.0644C88.2443 29.7241 89.9386 28.231 92.1068 28.231C94.2169 28.231 95.6955 29.6816 95.6955 32.1215C95.6955 32.3071 95.6955 32.5093 95.681 32.6804ZM93.5273 31.2162C93.5273 30.4697 93.0535 29.8527 92.1203 29.8527C91.2161 29.8527 90.5555 30.4842 90.4985 31.2162H93.5273Z" fill="#0E1935"></path>
    <path d="M99.6999 30.226V32.9541C99.6999 33.6136 99.9156 33.9589 100.59 33.9589C100.82 33.9589 101.107 33.9164 101.279 33.8438L101.308 35.5661C100.992 35.6812 100.447 35.7818 99.9446 35.7818C98.0357 35.7818 97.4032 34.7625 97.4032 33.2403V30.225H96.2543V28.4591H97.3887L98.2389 26.5781H99.6999V28.4591H101.38V30.225H99.6999V30.226Z" fill="#0E1935"></path>
    <path d="M103.824 34.1476C103.387 34.1476 103.046 34.4846 103.046 34.9149C103.046 35.3245 103.403 35.6708 103.824 35.6708C104.253 35.6708 104.602 35.3266 104.602 34.9035C104.603 34.4794 104.26 34.1476 103.824 34.1476Z" fill="#0E1935"></path>
    <path d="M109.912 34.2441C109.642 34.5883 109.209 34.7864 108.72 34.7864C107.647 34.7864 107.086 33.8822 107.086 32.9894C107.086 32.1236 107.594 31.1924 108.71 31.1924C109.165 31.1924 109.632 31.4226 109.844 31.7524L109.876 31.8021L110.699 31.1375L110.667 31.096C110.266 30.5703 109.494 30.2312 108.699 30.2312C107.083 30.2312 105.909 31.3915 105.909 32.9884C105.909 34.6122 107.065 35.7455 108.72 35.7455C109.522 35.7455 110.215 35.4552 110.675 34.9264L110.709 34.8869L109.947 34.1974L109.912 34.2441Z" fill="#0E1935"></path>
    <path d="M114.285 30.2312C112.656 30.2312 111.474 31.3863 111.474 32.978C111.474 34.5562 112.683 35.7465 114.285 35.7465C115.894 35.7465 117.108 34.5562 117.108 32.978C117.108 31.3863 115.92 30.2312 114.285 30.2312ZM115.941 32.978C115.941 33.849 115.423 34.7853 114.285 34.7853C113.199 34.7853 112.629 33.876 112.629 32.978C112.629 32.1122 113.148 31.181 114.285 31.181C115.424 31.1821 115.941 32.1132 115.941 32.978Z" fill="#0E1935"></path>
    <path d="M124.36 30.2312C123.624 30.2312 122.982 30.5889 122.623 31.1945C122.234 30.4013 121.547 30.2312 121.028 30.2312C120.352 30.2312 119.734 30.5765 119.413 31.1219C119.407 30.9042 119.389 30.6232 119.372 30.421L119.368 30.3722H118.298L118.303 30.4303C118.333 30.7362 118.346 31.2142 118.346 31.5284V35.6055H119.469V32.8266C119.469 31.8643 119.985 31.1924 120.724 31.1924C121.417 31.1924 121.753 31.6207 121.753 32.502V35.6055H122.876V32.7831C122.876 32.0489 123.203 31.1924 124.121 31.1924C124.84 31.1924 125.204 31.7026 125.204 32.7074V35.6055H126.327V32.3724C126.328 31.0524 125.573 30.2312 124.36 30.2312Z" fill="#0E1935"></path>
    <path d="M106.064 14.0347L103.539 16.5606L106.064 19.0865L107.614 17.5374C108.154 16.9971 108.154 16.122 107.614 15.5828L106.064 14.0347Z" fill="#0E1935"></path>
    <path d="M103.477 13.4965L106.211 10.7632V9.5469C106.211 6.75864 103.942 4.48987 101.154 4.48987H97.6571L94.5277 7.61927H101.154C102.216 7.61927 103.081 8.48406 103.081 9.5469V10.3681H93.496L90.3666 13.4975V14.3188C90.3666 17.107 92.6353 19.3758 95.4236 19.3758H99.4147L102.544 16.2464H95.4236C94.3608 16.2464 93.496 15.3816 93.496 14.3188V13.4975H103.477V13.4965Z" fill="#0E1935"></path>
    <path d="M44.0799 4.89014H34.9416L32.1896 7.62033H44.0799V4.89014Z" fill="#0E1935"></path>
    <path d="M65.4154 9.54687C65.4154 6.75861 63.1467 4.48984 60.3584 4.48984H56.5177L60.4974 1.5533L59.1991 0L52.1626 5.19805V7.62028H60.3574C61.4202 7.62028 62.285 8.48507 62.285 9.54791V10.3691H51.7458C50.7172 10.3691 49.8814 9.53236 49.8814 8.50478V4.73455L46.752 5.84094V8.50478C46.752 9.53236 45.9152 10.3691 44.8876 10.3691H31.8433V13.4986H44.8887C46.2159 13.4986 47.4219 12.977 48.3167 12.1298C49.2116 12.977 50.4185 13.4986 51.7448 13.4986H62.6811L65.4144 10.7642V9.54687H65.4154Z" fill="#0E1935"></path>
    <path d="M68.1301 11.4423L64.4044 15.0756L66.5882 17.3164L70.5647 13.4394C71.0065 13.0091 71.2595 12.4087 71.2595 11.7928V5.64697L68.1301 6.75336V11.4423Z" fill="#0E1935"></path>
    <path d="M84.647 2.77993C81.7976 2.83385 79.5433 5.22083 79.5433 8.0713V9.51365C79.5433 9.98545 79.1618 10.367 78.69 10.367H76.5477V1.24011L73.6267 2.34754V13.4954H78.69C80.0296 13.4954 81.2138 12.8307 81.9365 11.8135L83.1217 12.5103C84.1348 13.1034 85.2868 13.4166 86.4616 13.4166H87.2113L89.9508 10.6781V7.98213C89.9508 5.08084 87.5628 2.72601 84.647 2.77993ZM86.8225 10.2893H86.4627C85.8457 10.2893 85.2391 10.1254 84.7061 9.81228L82.6727 8.61879V8.03398C82.6727 6.91203 83.5448 5.95289 84.6678 5.90934C85.8478 5.86579 86.8214 6.81353 86.8214 7.9842V10.2893H86.8225Z" fill="#0E1935"></path>
    <path d="M121.271 4.49081H118.37L122.363 1.53768L121.029 0.275757L117.49 2.89293L113.389 5.92694V7.62022H121.272C122.335 7.62022 123.2 8.48501 123.2 9.54785V10.3691H111.002V1.2349L108.081 2.34129V13.4975H123.585L126.329 10.759V9.54785C126.328 6.75855 124.059 4.49081 121.271 4.49081Z" fill="#0E1935"></path>
    <path d="M117.156 0.14209L113.388 2.93243V4.3924L118.008 0.972659L117.156 0.14209Z" fill="#0E1935"></path>
    <path d="M25.5824 22.4741C24.4283 20.3775 21.7749 19.8611 19.5911 19.7149C19.3775 19.7004 19.1629 19.69 18.9493 19.6827C16.7064 19.6029 13.5345 19.494 11.1672 18.9807C8.40903 18.4312 5.52745 17.33 8.63093 15.2727C8.63508 15.2676 8.64026 15.2613 8.64545 15.2562C9.8659 15.6688 11.2097 15.9198 12.6262 15.9706C12.8014 15.9758 12.9756 15.9799 13.1477 15.9799C18.7201 15.9799 23.2659 12.8007 23.4111 8.71426C23.4588 7.35487 23.014 6.0608 22.1948 4.92641L24.8752 5.02077C24.8877 5.02077 24.9001 5.02181 24.9126 5.02181C25.1873 5.02181 25.4393 4.91501 25.626 4.74081C25.823 4.55727 25.9484 4.30012 25.9588 4.01082C25.9795 3.43429 25.5285 2.94798 24.9499 2.92724L19.8794 2.74682C18.0897 1.56163 15.7493 0.802607 13.1664 0.711358C12.9922 0.7041 12.818 0.702026 12.6448 0.702026C7.07348 0.702026 2.52765 3.88017 2.38248 7.96768C2.28501 10.7373 4.2313 13.2342 7.22695 14.6776C6.69708 14.9617 6.189 15.2956 5.69854 15.6419C5.23815 15.9685 4.79227 16.3169 4.37647 16.7006C4.17531 16.8872 3.97726 17.0956 3.79476 17.3206C3.06581 18.2228 2.5909 19.3955 3.13425 20.505C3.48265 21.2143 4.18568 21.5979 4.87108 21.9277C4.92292 21.9515 4.97581 21.9764 5.02869 22.0002C5.02869 22.0002 5.01314 22.0106 4.9841 22.0293C4.49261 22.3455 0.0794977 25.2416 0.00172914 27.443C-0.0884824 29.9907 3.37274 31.2132 5.32421 31.6809C7.35138 32.1672 9.49468 32.3746 11.6318 32.3746C13.3313 32.3746 15.0277 32.2429 16.6608 32.0158C17.2632 31.9318 17.8636 31.8312 18.4588 31.7151C20.3014 31.3553 22.1595 30.8202 23.6703 29.7056C25.88 28.0724 26.9708 24.9959 25.5824 22.4741ZM7.07971 8.1367C7.20206 4.66822 9.80575 1.93181 12.9352 1.93181C12.9984 1.93181 13.0606 1.93284 13.1249 1.93492C16.3393 2.04898 18.8425 5.0104 18.717 8.54836C18.5946 12.0168 15.9909 14.7533 12.8615 14.7533C12.7983 14.7533 12.734 14.7522 12.6707 14.7501C9.45735 14.6371 6.95424 11.6757 7.07971 8.1367ZM24.0146 25.7508C23.9627 26.9007 22.9466 27.6628 21.947 28.0123C19.5206 28.8625 16.9739 29.0917 14.4065 29.0917C14.2282 29.0917 14.0488 29.0907 13.8694 29.0886C11.7541 29.0637 9.64918 28.9071 7.58053 28.4364C6.28854 28.1419 4.19812 27.5975 4.28833 25.899C4.30389 25.5994 4.37543 25.2976 4.50608 25.027C4.78813 24.4536 5.262 23.9268 5.69335 23.4623C5.91318 23.2269 6.14752 23.0092 6.3943 22.8007C6.46378 22.7427 6.63487 22.5695 6.80596 22.4212C6.81322 22.4171 6.81841 22.4109 6.82463 22.4057C6.9615 22.4243 7.06311 22.4503 7.20725 22.4814C7.60335 22.5633 8.0036 22.6348 8.40696 22.696C9.38477 22.8474 10.3792 22.949 11.3508 23.0434C12.7869 23.1834 14.2292 23.2746 15.6705 23.3399C16.8495 23.3928 18.0295 23.4281 19.2095 23.4457C20.6073 23.4675 22.2736 23.4219 23.381 24.2763C23.8642 24.6485 24.0395 25.2105 24.0146 25.7508Z" fill="#8ECC1A"></path>
    <path d="M7.89368 36.9442C7.89368 38.6323 6.52495 40 4.83789 40C3.14979 40 1.7821 38.6313 1.7821 36.9442C1.7821 35.2561 3.14979 33.8884 4.83789 33.8884C6.52495 33.8884 7.89368 35.2561 7.89368 36.9442Z" fill="#8ECC1A"></path>
    <path d="M23.4298 36.9442C23.4298 38.6323 22.0611 40 20.374 40C18.6859 40 17.3182 38.6313 17.3182 36.9442C17.3182 35.2561 18.6859 33.8884 20.374 33.8884C22.0621 33.8884 23.4298 35.2561 23.4298 36.9442Z" fill="#8ECC1A"></path>
</svg>