<svg width="10" height="11" viewBox="0 0 10 11" fill="none" xmlns="http://www.w3.org/2000/svg">
<path d="M9.72544 4.81485L5.11206 0.20147C4.97057 0.0460671 4.82909 -0.0119191 4.68528 0.00199761H1.00896C0.725987 0.00199761 0.484764 0.11565 0.299209 0.301206C0.113653 0.486762 0 0.741901 0 1.01096V4.68728C0 4.82876 0.0556667 4.97025 0.199472 5.11406L4.81285 9.72741C5.18164 10.0962 5.79163 10.1101 6.16045 9.72741L7.93482 7.95304L9.7092 6.17866C10.0942 5.79365 10.0942 5.18364 9.72544 4.81485ZM3.01064 3.01264C2.6001 3.42318 1.9321 3.42318 1.51924 3.01264C1.10638 2.6021 1.1087 1.9341 1.51924 1.52123C1.92978 1.10837 2.59778 1.11069 3.01064 1.52123C3.42348 1.93178 3.42348 2.59978 3.01064 3.01264Z" fill="white"/>
</svg>