<svg width="152" height="162" viewBox="0 0 152 162" fill="none" xmlns="http://www.w3.org/2000/svg">
<path d="M21.7007 115H51.2592L55.1326 160H11.1326L21.7007 115Z" fill="#D8F1F7"/>
<path d="M22.2371 115H30.9302L36.1326 160H12.1326L22.2371 115Z" fill="#BBE0EA"/>
<path d="M45.1326 148.027C48.5419 136.855 51.3372 128.966 53.5188 124.364C57.2541 116.483 60.7566 109.734 62.2309 107.357C65.7461 101.687 73.208 107.611 72.0021 110.894C70.1761 115.864 62.6665 128.899 49.4739 150L45.1326 148.027H45.1326Z" fill="#B28B67"/>
<path d="M64.6803 159.97C64.0327 145.768 63.9591 136.109 64.4609 130.995C65.3208 122.239 66.3628 114.635 66.9724 111.875C68.4254 105.291 78.1373 108.347 78.1326 111.875C78.1249 117.214 75.4614 133.246 70.1423 159.97C69.7343 162.356 64.9353 162.979 64.6803 159.97Z" fill="#B28B67"/>
<path d="M45.1777 144.165L60.3114 107.5C63.8344 101.83 73.7123 108.654 72.5109 111.942C69.783 119.407 55.4834 145.389 54.6711 147.613L45.1777 144.165Z" fill="url(#paint0_linear)"/>
<path fill-rule="evenodd" clip-rule="evenodd" d="M45.558 145L42.1326 152.033L44.6103 153.289L44.9048 152.604L48.9651 155.297L59.7967 160.839L60.3852 159.47C56.7973 155.726 53.851 151.888 51.5457 147.953L45.558 145ZM66.5608 154.125L66.479 161.843H70.1636V161.108L74.1758 162H87.1326V160.53C81.672 158.832 77.1067 156.697 73.4376 154.125H66.5608Z" fill="#1B1159"/>
<path d="M80.1326 112.771C80.1326 122.812 74.9246 150.781 74.9219 152.992L64.9075 153C66.7423 129.069 67.4463 116.991 67.0201 116.766C66.3806 116.429 40.808 119.382 33.1386 119.382C22.079 119.382 17.504 112.237 17.1326 99H39.0415C43.5018 99.4886 66.7698 104.297 75.4112 105.95C79.1105 106.658 80.1326 110.004 80.1326 112.771Z" fill="url(#paint1_linear)"/>
<path d="M43.3834 43.1473C45.0652 47.3244 43.7651 57.3333 40.9812 57.7546C39.8714 57.9228 37.6413 56.9891 35.4488 55.3122L35.8156 66L27.1326 65.0841L31.5994 51.2938C30.14 49.1373 29.2659 46.5905 29.7394 43.89C31.1037 36.1092 41.701 38.9702 43.3834 43.1473Z" fill="#B28B67"/>
<path d="M47.1022 37.9821C46.992 37.3375 46.5758 36.7515 45.9559 36.525C45.8053 36.4703 45.6477 36.4374 45.4879 36.4273C45.4306 36.424 45.4128 36.4387 45.3906 36.3958C45.3744 36.3632 45.3814 36.2904 45.3766 36.2546C45.363 36.1422 45.3422 36.0308 45.3144 35.9211C45.2188 35.548 45.028 35.2064 44.7864 34.9105C44.3341 34.356 43.6882 33.9384 42.9857 33.801C42.6019 33.7255 42.2101 33.7488 41.8297 33.8379C41.6329 33.8841 41.4405 33.947 41.2514 34.0193C41.1946 34.041 41.0055 34.1572 40.9525 34.1426C40.8931 34.1263 40.7888 33.9633 40.7445 33.9199C40.1921 33.3893 39.469 33.127 38.7189 33.0532C37.8731 32.9701 37.0543 32.9272 36.2945 33.3752C36.0494 33.5213 35.8179 33.6893 35.6027 33.877C35.5583 33.9165 35.5151 33.9572 35.473 33.9992C35.4011 34.0703 35.4087 34.0969 35.326 34.0334C35.0121 33.7857 34.6236 33.653 34.2246 33.657C33.9862 33.6614 33.7501 33.7086 33.5225 33.7803C33.4453 33.8042 33.261 33.9145 33.1821 33.9069C33.1037 33.9003 32.947 33.7635 32.8697 33.7249C32.4514 33.518 31.9866 33.4244 31.5213 33.4534C31.0358 33.4857 30.5624 33.6188 30.1307 33.8444C29.9254 33.9514 29.7427 34.0741 29.5881 34.2485C29.5217 34.3239 29.46 34.4043 29.386 34.4727C29.3428 34.5129 29.2617 34.5504 29.2352 34.6042C29.2514 34.5716 28.7445 34.3098 28.6959 34.2914C28.4403 34.1949 28.1621 34.1762 27.896 34.2376C27.3902 34.3495 26.9313 34.671 26.5465 35.0098C26.3487 35.1836 26.1709 35.3802 26.0153 35.5931C25.9409 35.6953 25.8713 35.801 25.8067 35.9097C25.7753 35.9624 25.751 36.0292 25.7121 36.0759C25.6618 36.1356 25.6321 36.1335 25.5505 36.1536C25.1327 36.2515 24.7476 36.4574 24.4334 36.7509C24.1178 37.0507 23.893 37.4363 23.7719 37.855C23.7649 37.88 23.7514 37.9837 23.7352 37.9962C23.7135 38.0125 23.6341 37.9957 23.6033 37.9962C23.2987 37.9982 22.9968 38.0543 22.7116 38.1618C21.9922 38.4323 21.4361 39.0237 21.121 39.7216C20.7908 40.4547 20.7044 41.3242 20.9265 42.1013C20.9621 42.2262 21.0075 42.3495 21.0638 42.4668C21.0983 42.539 21.1119 42.5407 21.0773 42.6091C21.0394 42.6851 20.9762 42.7563 20.9319 42.8296C20.7892 43.0701 20.6795 43.3292 20.5995 43.5969C20.4682 44.0368 20.3769 44.5039 20.4131 44.9644C20.4293 45.1784 20.4758 45.3907 20.559 45.5889C20.6237 45.7421 20.71 45.8851 20.8152 46.0136C20.8357 46.0391 20.8638 46.0619 20.88 46.0896C20.9211 46.1559 20.9362 46.1059 20.9027 46.1945C20.8551 46.3177 20.7643 46.435 20.7038 46.5529C20.6417 46.6751 20.5837 46.7993 20.5298 46.9254C20.4206 47.1807 20.3233 47.4414 20.2515 47.7102C20.1131 48.2261 20.0693 48.786 20.2639 49.2932C20.3883 49.6184 20.6168 49.8928 20.9135 50.0731C20.9627 50.1035 21.0281 50.1214 21.0465 50.1746C21.0665 50.2322 21.0173 50.3376 21.0021 50.3973C20.8708 50.923 20.7752 51.4791 20.8762 52.0178C20.9739 52.5175 21.2379 52.9689 21.6247 53.2979C22.3662 53.9278 23.446 54.0109 24.3313 53.6628C24.5623 53.5721 24.7807 53.4516 24.9809 53.3044C25.3797 53.9881 26.3379 54.069 27.0362 53.9599C27.9063 53.8241 28.6478 53.2989 29.1212 52.5566C29.587 53.2734 30.7328 53.1778 31.1786 52.5006C31.2878 52.335 31.3619 52.1476 31.4089 51.9543C31.4332 51.8533 31.4354 51.7479 31.4564 51.6475C31.4835 51.5188 31.5824 51.4014 31.6445 51.2809C31.7661 51.0463 31.852 50.7997 31.8823 50.5363C31.8985 50.3984 31.8947 50.2621 31.8964 50.1241C31.8974 49.9998 31.9434 49.889 31.9753 49.7695C31.7537 49.7825 31.4959 49.6957 31.2981 49.6098C31.1035 49.5262 30.9333 49.3416 30.8074 49.1754C30.515 48.7914 30.362 48.3119 30.2723 47.8405C30.0756 46.807 30.3247 45.6183 31.3759 45.174C31.8655 44.9666 33.2523 45.1137 33.7906 45.2989C34.3564 45.4928 34.878 46.8592 34.8974 46.9846C34.9093 47.0617 34.8899 47.1541 34.9525 47.2116C35.0914 47.3382 35.359 47.1725 35.48 47.0894C35.6881 46.9466 35.8475 46.7435 35.988 46.5355C36.2974 46.0802 36.5561 45.5922 36.7592 45.0801C36.9143 44.6863 37.0305 44.2763 37.2192 43.8967C37.4072 43.5193 37.6758 43.1929 38.0595 43.0082C38.4768 42.8073 38.9388 42.7275 39.3852 42.6205C39.8273 42.5151 40.2656 42.375 40.6299 42.0899C40.7099 42.0269 40.7882 41.9596 40.8552 41.8835C40.9082 41.8227 40.9671 41.7021 41.0417 41.6685C41.1579 41.6153 41.3 41.7999 41.3881 41.871C41.8232 42.2208 42.1691 42.6808 42.435 43.1717C42.6998 43.6605 42.9105 44.1253 43.0651 44.6559C43.1802 45.0491 43.2262 45.5422 43.465 45.88C43.572 46.031 44.4648 46.2097 44.7697 46.1201C45.0739 46.0304 45.4344 45.7524 45.5522 45.5661C45.6738 45.376 45.7208 45.1588 45.7008 44.9345C45.6889 44.8026 45.6506 44.676 45.6354 44.5462C45.623 44.4376 45.6117 44.3344 45.5706 44.2312C45.4941 44.0373 45.3408 43.884 45.1474 43.8082C45.3771 43.6361 45.5711 43.4206 45.7187 43.1739C45.8711 42.917 46.0105 42.5993 46.071 42.306C46.1208 42.0676 46.1094 41.8146 46.0008 41.5935C45.8873 41.3622 45.6603 41.1949 45.4657 41.0374C45.8108 40.8156 46.1186 40.5401 46.3775 40.2212C46.8839 39.6037 47.2416 38.7962 47.1022 37.9821Z" fill="#3D2216"/>
<path d="M49.2472 78L63.5824 82.2189C66.9276 81.8542 69.8511 81.9086 72.3534 82.3809C73.0022 82.653 73.9246 83.3649 71.8738 84.0161C69.8235 84.6672 67.6943 85.4509 67.6813 86.2907C67.6689 87.1317 69.1871 87.5091 68.9855 88.7182C68.8503 89.5251 66.5102 88.599 61.9641 85.9411L49.1326 85.5534L49.2472 78V78Z" fill="#B28B67"/>
<path d="M28.2425 60.0446L33.8785 58.5631C42.2116 75.8386 45.1775 77.8341 59.9943 81.1572L60.2494 93.2208C32.9025 95.7334 34.8147 76.1002 28.2425 60.0446Z" fill="url(#paint2_linear)"/>
<path d="M17.1326 104C23.5979 102.756 41.6735 104.247 43.0234 101.85C47.493 93.5989 37.1195 73.019 35.4752 59.399L29.5293 59C28.7876 59.0942 17.4555 65.6624 17.1326 103.999L17.1326 104Z" fill="url(#paint3_linear)"/>
<path d="M10.1103 50.6696L17.1326 51C13.5427 36.9697 11.5975 29.5235 11.2975 28.6609C10.6223 26.7202 12.424 23.9086 13.211 22.388C10.9747 21.2595 11.0164 25.019 8.19792 23.5449C5.62489 22.1993 3.73644 19.903 0.587913 21.6031C0.201096 21.8126 -0.25585 22.6511 0.700341 23.3726C3.08191 25.1711 6.48591 28.2802 6.91558 29.268C7.50109 30.6153 8.56581 37.7491 10.1103 50.6696Z" fill="#B28B67"/>
<path d="M31.1697 83C19.8082 76.2433 11.1286 60.2462 5.13257 35.0076L17.327 33C19.8426 38.8465 25.1106 55.0037 33.1326 81.472L31.1697 83Z" fill="#8950AF"/>
<path d="M71.6286 77.4292C71.6286 82.0838 67.9358 85.8578 63.3809 85.8578C61.0788 85.8633 58.8787 84.8767 57.3102 83.1355C55.9093 81.5883 55.1307 79.5481 55.1326 77.4292C55.1326 72.774 58.8254 69 63.3803 69C65.4456 68.9943 67.438 69.7884 68.9645 71.2259C70.6612 72.8116 71.629 75.0653 71.6286 77.4292Z" fill="#FFDE50"/>
<path fill-rule="evenodd" clip-rule="evenodd" d="M57.4473 83.2755L69.1021 71.3659C69.1021 71.3659 69.1021 71.3659 69.1021 71.3659V71.3664H69.1027C69.1025 71.3663 69.1023 71.3661 69.1021 71.3659V71.3659L69.1021 71.3659C68.6706 70.9596 68.1986 70.6019 67.6939 70.2988L56.4026 81.8356C56.7004 82.3525 57.0506 82.8352 57.4473 83.2755ZM60.3647 85.2764L71.0593 74.3471C70.7637 73.5783 70.3596 72.8589 69.86 72.2125L58.2764 84.0501C58.911 84.5618 59.6145 84.975 60.3647 85.2764Z" fill="#FFEA94"/>
<path d="M69.7898 77.4285C69.7826 81.0246 66.9393 83.9418 63.4203 83.9645C59.9013 83.9866 57.0228 81.1051 56.9718 77.509V77.4285C56.9482 75.0723 58.164 72.8844 60.1568 71.6995C62.1531 70.5142 64.6085 70.5142 66.6047 71.6995C68.5976 72.8844 69.8139 75.0723 69.7898 77.4285Z" fill="#FAA300"/>
<path d="M67.9911 72.7618L58.8204 82.1339C58.1932 81.4936 57.7003 80.7266 57.3726 79.8808C57.0834 79.1326 56.9305 78.3355 56.9219 77.5297V77.4481C56.9219 74.7678 58.5023 72.3527 60.9251 71.327C63.3473 70.3013 66.1359 70.868 67.9911 72.7618Z" fill="#FFBD00"/>
<path d="M63.5125 75.9791C63.6322 75.225 64.2673 74.6745 65.0068 74.6837H67.7866V75.9054H65.3485C65.003 75.9054 64.7091 76.1689 64.7091 76.4778V78.3517C64.7091 78.6747 65.026 78.9921 65.3485 78.9921H67.7866V80.2093H65.0068C64.2341 80.2093 63.6227 79.6698 63.5125 78.9331C63.4028 79.6704 62.7968 80.2093 62.0307 80.2093H59.2745V78.9926H61.6918C62.011 78.9926 62.3258 78.6753 62.3258 78.3523V76.4772C62.3258 76.1684 62.034 75.9054 61.6918 75.9054H59.2734V74.6837H62.0302C62.7705 74.6797 63.4011 75.2311 63.5125 75.9791Z" fill="#FFEA94"/>
<path d="M66.0816 81.364C66.0816 85.9831 62.2872 89.7285 57.6071 89.7285C55.2362 89.7313 52.9729 88.7508 51.3698 87.0266C49.9234 85.4734 49.1259 83.4549 49.1326 81.364C49.1326 76.7455 52.927 73 57.6071 73C59.7412 72.999 61.7945 73.7895 63.3446 75.2089C65.0916 76.791 66.0844 79.024 66.0816 81.364Z" fill="#FFDE50"/>
<path fill-rule="evenodd" clip-rule="evenodd" d="M51.5109 87.1657L63.4857 75.348V75.3485H63.4863C63.4861 75.3484 63.4859 75.3482 63.4857 75.348C63.0438 74.9462 62.5595 74.5916 62.0384 74.2891L50.4376 85.7372C50.7425 86.2486 51.1022 86.7274 51.5109 87.1657ZM54.5086 89.152L65.4968 78.306C65.1947 77.5459 64.7797 76.8324 64.2649 76.1881L52.3626 87.9346C53.0117 88.4409 53.7349 88.8512 54.5086 89.152Z" fill="#FFEA94"/>
<path d="M64.1922 81.3635C64.1849 84.9324 61.2631 87.8274 57.6472 87.8493C54.0319 87.8712 51.0745 85.0119 51.0223 81.4441V81.3635C50.998 79.0258 52.2475 76.8547 54.2948 75.6789C56.3359 74.5029 58.8786 74.5029 60.9197 75.6789C62.9671 76.8547 64.2172 79.0258 64.1922 81.3635Z" fill="#FAA300"/>
<path d="M62.3286 76.7297L52.906 86.0293C52.2587 85.3896 51.7526 84.6291 51.4185 83.7941C51.121 83.0496 50.9642 82.2594 50.9556 81.4612V81.3801C50.9556 78.7204 52.5791 76.3234 55.0679 75.3056C57.5572 74.2878 60.4229 74.8499 62.3286 76.7297Z" fill="#FFBD00"/>
<path d="M57.7425 79.9261C57.8615 79.1814 58.5143 78.6346 59.2782 78.6407H62.1342V79.8526H59.6295C59.2737 79.8526 58.9722 80.1142 58.9722 80.4202V82.2803C58.9722 82.6011 59.298 82.9164 59.6295 82.9164H62.1342V84.1234H59.2782C58.4843 84.1234 57.8559 83.5882 57.7425 82.8567C57.6379 83.5902 56.985 84.1334 56.2199 84.1234H53.3883V82.9164H55.872C56.1995 82.9164 56.5236 82.6011 56.5236 82.2803V80.4202C56.5236 80.1131 56.2233 79.8526 55.872 79.8526H53.3877V78.6407H56.2193C56.9798 78.6368 57.6286 79.1836 57.7425 79.9261Z" fill="#FFEA94"/>
<path d="M77.6286 83.4292C77.6286 88.0838 73.9358 91.8578 69.3809 91.8578C67.0788 91.8633 64.8787 90.8767 63.3102 89.1355C61.9093 87.5883 61.1307 85.5481 61.1326 83.4292C61.1326 78.774 64.8254 75 69.3803 75C71.4456 74.9943 73.438 75.7884 74.9645 77.2259C76.6612 78.8116 77.629 81.0653 77.6286 83.4292Z" fill="#FFDE50"/>
<path fill-rule="evenodd" clip-rule="evenodd" d="M63.4473 89.2755L75.1021 77.3659C75.1021 77.3659 75.1021 77.3659 75.1021 77.3659V77.3664H75.1027C75.1025 77.3663 75.1023 77.3661 75.1021 77.3659V77.3659L75.1021 77.3659C74.6706 76.9596 74.1986 76.6019 73.6939 76.2988L62.4026 87.8356C62.7004 88.3525 63.0506 88.8352 63.4473 89.2755ZM66.3647 91.2764L77.0593 80.3471C76.7637 79.5783 76.3596 78.8589 75.86 78.2125L64.2764 90.0501C64.911 90.5618 65.6145 90.975 66.3647 91.2764Z" fill="#FFEA94"/>
<path d="M75.7898 83.4285C75.7826 87.0246 72.9393 89.9418 69.4203 89.9645C65.9013 89.9866 63.0228 87.1051 62.9718 83.509V83.4285C62.9482 81.0723 64.164 78.8844 66.1568 77.6995C68.1531 76.5142 70.6085 76.5142 72.6047 77.6995C74.5976 78.8844 75.8139 81.0723 75.7898 83.4285Z" fill="#FAA300"/>
<path d="M73.9862 78.7618L64.8155 88.1339C64.1883 87.4936 63.6955 86.7266 63.3678 85.8808C63.0785 85.1326 62.9256 84.3355 62.917 83.5297V83.4481C62.9175 80.7678 64.4974 78.3527 66.9202 77.327C69.3424 76.3013 72.1315 76.868 73.9862 78.7618Z" fill="#FFBD00"/>
<path d="M69.5125 81.9791C69.6322 81.225 70.2673 80.6745 71.0068 80.6837H73.7866V81.9054H71.3485C71.003 81.9054 70.7091 82.1689 70.7091 82.4778V84.3517C70.7091 84.6747 71.026 84.9921 71.3485 84.9921H73.7866V86.2093H71.0068C70.2341 86.2093 69.6227 85.6698 69.5125 84.9331C69.4028 85.6704 68.7968 86.2093 68.0307 86.2093H65.2745V84.9926H67.6918C68.011 84.9926 68.3258 84.6753 68.3258 84.3523V82.4772C68.3258 82.1684 68.034 81.9054 67.6918 81.9054H65.2734V80.6837H68.0302C68.7705 80.6797 69.4011 81.2311 69.5125 81.9791Z" fill="#FFEA94"/>
<path d="M69.6286 87.4292C69.6286 92.0838 65.9358 95.8578 61.3809 95.8578C59.0788 95.8633 56.8787 94.8767 55.3102 93.1355C53.9093 91.5883 53.1307 89.5481 53.1326 87.4292C53.1326 82.774 56.8254 79 61.3803 79C63.4456 78.9943 65.438 79.7884 66.9645 81.2259C68.6612 82.8116 69.629 85.0653 69.6286 87.4292Z" fill="#FFDE50"/>
<path fill-rule="evenodd" clip-rule="evenodd" d="M55.4473 93.2755L67.1021 81.3659C67.1021 81.3659 67.1021 81.3659 67.1021 81.3659V81.3664H67.1027C67.1025 81.3663 67.1023 81.3661 67.1021 81.3659V81.3659L67.1021 81.3659C66.6706 80.9596 66.1986 80.6019 65.6939 80.2988L54.4026 91.8356C54.7004 92.3525 55.0506 92.8352 55.4473 93.2755ZM58.3647 95.2764L69.0593 84.3471C68.7637 83.5783 68.3596 82.8589 67.86 82.2125L56.2764 94.0501C56.911 94.5618 57.6145 94.975 58.3647 95.2764Z" fill="#FFEA94"/>
<path d="M67.7898 87.4285C67.7826 91.0246 64.9393 93.9418 61.4203 93.9645C57.9013 93.9866 55.0228 91.1051 54.9718 87.509V87.4285C54.9482 85.0723 56.164 82.8844 58.1568 81.6995C60.1531 80.5142 62.6085 80.5142 64.6047 81.6995C66.5976 82.8844 67.8139 85.0723 67.7898 87.4285Z" fill="#FAA300"/>
<path d="M65.9562 82.7448L56.7855 92.1163C56.1582 91.476 55.6654 90.709 55.3377 89.8632C55.0485 89.1151 54.8957 88.3182 54.887 87.5127V87.4305C54.8875 84.7508 56.4674 82.3351 58.8902 81.3094C61.3124 80.2837 64.1015 80.8504 65.9562 82.7448Z" fill="#FFBD00"/>
<path d="M61.5125 85.9791C61.6322 85.225 62.2673 84.6745 63.0068 84.6837H65.7866V85.9054H63.3485C63.003 85.9054 62.7091 86.1689 62.7091 86.4778V88.3517C62.7091 88.6747 63.026 88.9921 63.3485 88.9921H65.7866V90.2093H63.0068C62.2341 90.2093 61.6227 89.6698 61.5125 88.9331C61.4028 89.6704 60.7968 90.2093 60.0307 90.2093H57.2745V88.9926H59.6918C60.011 88.9926 60.3258 88.6753 60.3258 88.3523V86.4772C60.3258 86.1684 60.034 85.9054 59.6918 85.9054H57.2734V84.6837H60.0302C60.7705 84.6797 61.4011 85.2311 61.5125 85.9791Z" fill="#FFEA94"/>
<path d="M63.7125 87.4717C63.7125 92.1501 60.0005 95.9434 55.4225 95.9434C53.1088 95.9488 50.8976 94.957 49.3212 93.2069C47.9132 91.6518 47.1307 89.6013 47.1326 87.4717C47.1326 82.7933 50.8446 79 55.4225 79C57.4982 78.9944 59.5005 79.7926 61.0347 81.2372C62.7399 82.8309 63.7128 85.0959 63.7125 87.4717Z" fill="#FFDE50"/>
<path fill-rule="evenodd" clip-rule="evenodd" d="M49.4593 93.3485L61.1729 81.3788C61.1729 81.3788 61.1729 81.3788 61.1729 81.3788V81.3793H61.1734C61.1733 81.3792 61.1731 81.379 61.1729 81.3788V81.3788L61.1729 81.3788C60.7403 80.9722 60.2673 80.6125 59.7575 80.3066L48.4092 91.9012C48.7085 92.4208 49.0605 92.906 49.4593 93.3485ZM52.3916 95.3601L63.14 84.3753C62.8429 83.6024 62.4367 82.8792 61.9346 82.2293L50.2923 94.1276C50.9302 94.642 51.6374 95.0572 52.3916 95.3601Z" fill="#FFEA94"/>
<path d="M61.8644 87.4716C61.8568 91.0858 58.9991 94.0183 55.462 94.0404C51.9249 94.0631 49.0322 91.1668 48.9812 87.5526V87.4716C48.9571 85.1035 50.18 82.9043 52.1827 81.7137C54.189 80.5225 56.6567 80.5225 58.663 81.7137C60.6657 82.9048 61.8886 85.1035 61.8644 87.4716Z" fill="#FAA300"/>
<path d="M60.0005 82.7722L50.7838 92.1913C50.1532 91.5479 49.6578 90.777 49.3283 89.9269C49.0376 89.1749 48.884 88.3737 48.8754 87.5639V87.4818C48.8759 84.7884 50.464 82.3602 52.8989 81.3295C55.3337 80.2987 58.1365 80.8682 60.0005 82.7722Z" fill="#FFBD00"/>
<path d="M55.5553 86.0152C55.6754 85.2572 56.3136 84.7038 57.0568 84.713H59.8509V85.941H57.4001C57.053 85.941 56.758 86.2056 56.758 86.5156V88.3997C56.758 88.7244 57.076 89.0435 57.4001 89.0435H59.8509V90.2663H57.0568C56.2803 90.2663 55.6656 89.724 55.5553 88.9834C55.4446 89.7246 54.8359 90.2663 54.0659 90.2663H51.2949V89.0435H53.7243C54.0451 89.0435 54.3615 88.7244 54.3615 88.3997V86.5156C54.3615 86.205 54.0687 85.941 53.7248 85.941H51.2949V84.713H54.0648C54.8053 84.7055 55.4393 85.2595 55.5553 86.0152Z" fill="#FFEA94"/>
<path d="M45.7672 88.5032C46.8551 87.2833 78.3964 86.4112 78.9498 87.4864C79.7666 89.0746 77.714 103.159 75.4139 106.193C72.6939 107.007 51.2067 107.414 48.4867 106.397C44.8713 102.39 44.561 89.8968 45.7667 88.5032H45.7672Z" fill="url(#paint4_linear)"/>
<path d="M141.011 117.414C132.812 122.874 126.757 124.837 122.847 123.301C116.982 120.998 117.504 114.781 112.936 113.007C108.368 111.234 103.541 115.764 97.6761 113.46C91.8113 111.157 85.5421 105.351 85.0128 104.344L83.4514 99.232C90.6559 105.328 96.0917 108.867 99.7595 109.851C105.261 111.326 109.526 106.272 115.867 108.564C122.208 110.856 120.158 118.409 124.877 118.939C128.023 119.293 131.213 118.266 134.446 115.861L141.011 117.414Z" fill="url(#paint5_linear)"/>
<path opacity="0.58" d="M135.047 13.2144C125.002 9.92157 118.613 9.73255 115.878 12.6473C111.777 17.0195 116.991 23.4572 113.25 27.9945C109.51 32.5327 103.736 26.5022 98.7947 31.9721C93.8525 37.4426 96.429 42.0778 93.9315 45.5703C92.2662 47.8989 86.487 48.6559 76.5941 47.8425L79.487 51.7044C89.208 52.8698 95.1588 51.8878 97.3386 48.7598C100.608 44.0669 97.9135 38.254 101.657 35.6785C107.449 31.6916 112.501 37.0066 117.609 31.2029C122.717 25.3988 114.837 19.4817 119.374 15.9756C122.399 13.6384 126.043 13.6874 130.305 16.1224L135.046 13.2148L135.047 13.2144Z" fill="url(#paint6_linear)"/>
<path d="M115.226 150.488C114.591 148.227 113.956 146.451 113.32 145.159C111.733 141.768 109.431 140.072 106.414 140.072C101.889 140.072 101.413 143.948 101.413 145.159C101.413 146.37 102.002 149.399 105.938 150.973C108.561 152.022 111.737 152.506 115.464 152.426L115.226 150.488Z" fill="url(#paint7_linear)"/>
<path d="M115.214 150.469C116.174 147.252 116.972 144.998 117.607 143.705C119.195 140.476 121.259 138.861 123.799 138.861C127.61 138.861 129.991 141.041 130.468 144.432C130.944 147.824 128.562 149.277 124.979 150.469C122.59 151.263 119.256 151.91 114.977 152.407L115.214 150.469Z" fill="url(#paint8_linear)"/>
<path d="M131.867 157.254C130.861 158.691 101.519 159.662 101.206 158.452C100.688 156.457 103.059 152.767 104.007 152.305C106.852 151.382 125.582 150.459 128.901 151.382C130.323 151.844 132.981 155.613 131.867 157.254Z" fill="url(#paint9_linear)"/>
<path d="M76.8881 37L72.1326 34L78.1326 34.5703L76.8881 37Z" fill="#E0E0E2"/>
<path d="M111.133 57L106.133 57.2499L106.613 58.7122C107.634 58.245 108.885 58.3408 110.367 59L111.133 57V57Z" fill="#9EE478"/>
<path fill-rule="evenodd" clip-rule="evenodd" d="M90.4146 24.7686L90.7429 20L93.2693 23.8764L90.4146 24.7686ZM78.0201 63.805L76.1326 63.1811L78.6708 58.7448L80.4514 60.8098C78.8884 61.6064 78.0781 62.605 78.0201 63.805Z" fill="#FCD208"/>
<path d="M117.133 79L111.133 78.394L111.776 76.2499C112.982 76.9904 114.491 76.9067 116.301 76L117.133 79Z" fill="#FAA300"/>
<path fill-rule="evenodd" clip-rule="evenodd" d="M68.1326 5.04712L71.6672 2.21109L69.5583 1C69.0966 2.45544 68.6217 3.80395 68.1326 5.04712ZM151.133 15.5689L147.766 18.5937L150.475 19.9855L151.133 15.5689ZM119.276 37.6968L118.046 42C117.717 40.7082 117.314 39.3372 116.837 37.886L119.276 37.6968Z" fill="#E0E0E2"/>
<path d="M145.133 36L140.133 37.3198L142.283 39L145.133 36Z" fill="#87D3E1"/>
<path d="M59.3724 56L58.1326 51.2232L59.7291 51C59.5684 52.167 60.0365 53.289 61.1326 54.368L59.3724 56Z" fill="#EF394E"/>
<path d="M116.301 103L118.133 100C117.15 100.543 116.149 101.053 115.133 101.529L116.301 103Z" fill="#E0E0E2"/>
<path d="M105.164 5L109.133 1.30821L107.509 0C107.046 1.21998 105.921 1.9663 104.133 2.23962L105.164 5Z" fill="#8950AF"/>
<path d="M101.133 120L102.979 126L106.133 124.645L101.133 120Z" fill="#E0E0E2"/>
<path fill-rule="evenodd" clip-rule="evenodd" d="M67.5589 19.1768L65.8631 15L64.1326 16.6234C65.3792 17.4933 65.9641 18.4596 65.8883 19.5213L67.5589 19.1768ZM90.1242 85L87.1671 81.6503L89.3268 80.7208C89.5651 82.2527 90.1668 83.2071 91.1326 83.5852L90.1242 85Z" fill="#87D3E1"/>
<defs>
<linearGradient id="paint0_linear" x1="55.0969" y1="119.66" x2="26.232" y2="140.495" gradientUnits="userSpaceOnUse">
<stop stop-color="#1B1159"/>
<stop offset="1" stop-color="#35477C"/>
</linearGradient>
<linearGradient id="paint1_linear" x1="46.5342" y1="65.1807" x2="9.47814" y2="127.005" gradientUnits="userSpaceOnUse">
<stop stop-color="#1B1159"/>
<stop offset="1" stop-color="#35477C"/>
</linearGradient>
<linearGradient id="paint2_linear" x1="58.636" y1="117.863" x2="76.8141" y2="86.393" gradientUnits="userSpaceOnUse">
<stop stop-color="#693E86"/>
<stop offset="1" stop-color="#8950AF"/>
</linearGradient>
<linearGradient id="paint3_linear" x1="27.7625" y1="29.1143" x2="-19.353" y2="32.5916" gradientUnits="userSpaceOnUse">
<stop stop-color="#8950AF"/>
<stop offset="1" stop-color="#693E86"/>
</linearGradient>
<linearGradient id="paint4_linear" x1="72.6547" y1="125.284" x2="86.1223" y2="89.4791" gradientUnits="userSpaceOnUse">
<stop stop-color="#949DA9"/>
<stop offset="1" stop-color="#B2B9C7"/>
</linearGradient>
<linearGradient id="paint5_linear" x1="132.113" y1="127.712" x2="134.659" y2="112.714" gradientUnits="userSpaceOnUse">
<stop stop-color="#EF394E"/>
<stop offset="1" stop-color="#F66D77"/>
</linearGradient>
<linearGradient id="paint6_linear" x1="231.01" y1="-76.4438" x2="273.431" y2="-21.4718" gradientUnits="userSpaceOnUse">
<stop stop-color="#F66D77"/>
<stop offset="1" stop-color="#EF394E"/>
</linearGradient>
<linearGradient id="paint7_linear" x1="104.35" y1="140.025" x2="101.872" y2="150.66" gradientUnits="userSpaceOnUse">
<stop stop-color="#F66D77"/>
<stop offset="1" stop-color="#EF394E"/>
</linearGradient>
<linearGradient id="paint8_linear" x1="139.788" y1="146.309" x2="127.285" y2="164.865" gradientUnits="userSpaceOnUse">
<stop stop-color="#F66D77"/>
<stop offset="1" stop-color="#EF394E"/>
</linearGradient>
<linearGradient id="paint9_linear" x1="127.964" y1="146.075" x2="89.5456" y2="171.051" gradientUnits="userSpaceOnUse">
<stop stop-color="#B2B9C7"/>
<stop offset="1" stop-color="#949DA9"/>
</linearGradient>
</defs>
</svg>
