<svg width="30" height="30" viewBox="0 0 30 30" fill="none" xmlns="http://www.w3.org/2000/svg">
<path d="M26.9453 8.99624C26.8029 8.46698 26.524 7.98442 26.1364 7.59687C25.7489 7.20932 25.2663 6.93039 24.7371 6.78799C23.2905 6.22949 9.27919 5.95587 5.21469 6.80399C4.68539 6.94641 4.20279 7.22538 3.81522 7.61297C3.42765 8.00057 3.14871 8.48318 3.00632 9.01249C2.35344 11.8769 2.30388 18.0696 3.02232 20.9979C3.16474 21.5272 3.4437 22.0098 3.83127 22.3973C4.21884 22.7849 4.70142 23.0638 5.23069 23.2062C8.09501 23.8655 21.7127 23.9583 24.7531 23.2062C25.2823 23.0638 25.7649 22.7849 26.1524 22.3973C26.54 22.0098 26.8189 21.5272 26.9613 20.9979C27.6574 17.8773 27.707 12.0687 26.9453 8.99624Z" stroke="white" stroke-linecap="round" stroke-linejoin="round"/>
<path d="M19.1043 14.997L12.5754 11.2525V18.7414L19.1043 14.997Z" stroke="white" stroke-linecap="round" stroke-linejoin="round"/>
</svg>